<svg width="83" height="71" viewBox="0 0 83 71" fill="none" xmlns="http://www.w3.org/2000/svg">
<g filter="url(#filter0_d_1_584)">
<path d="M41.085 1C31.1737 1 23.157 9.02311 23.157 18.9429C23.157 27.1934 28.6999 34.122 36.2653 36.2261C36.414 36.2697 36.5404 36.3683 36.6182 36.5023L41.0849 44.2228L45.5517 36.5023C45.6294 36.3683 45.7559 36.2697 45.9046 36.2261C53.4678 34.12 59.0128 27.1911 59.0128 18.9429C59.0128 9.02197 50.9963 1 41.0849 1H41.085ZM41.085 6.32637C48.0765 6.32637 53.7635 12.0074 53.7635 19.0049C53.7635 26.0024 48.0767 31.6834 41.085 31.6834C34.0933 31.6834 28.4065 26.0024 28.4065 19.0049C28.4065 12.0074 34.0933 6.32637 41.085 6.32637ZM37.7849 9.84127C37.5451 9.8721 37.3549 10.0581 37.3193 10.2973C37.2836 10.5364 37.4111 10.7701 37.6314 10.8695C38.061 11.0805 38.3022 11.295 38.4297 11.4526C38.5572 11.6105 38.5849 11.7 38.5832 11.8363C38.5784 12.109 38.3441 12.5819 38.0151 13.0951C37.6862 13.6084 37.2741 14.1631 37.2477 14.8912C37.2343 15.255 37.3446 15.6463 37.6006 15.9811C37.8565 16.3158 38.2255 16.6115 38.7363 16.8711H38.7367C38.8648 16.9362 39.0135 16.9479 39.1502 16.9034C39.2873 16.8588 39.4007 16.7615 39.4658 16.6334C39.5309 16.5052 39.5425 16.3562 39.4976 16.2195C39.4531 16.0828 39.3558 15.9694 39.2276 15.9043C38.811 15.6922 38.5794 15.4924 38.4602 15.3362C38.3406 15.18 38.317 15.0772 38.3221 14.9371C38.3324 14.6568 38.5907 14.1939 38.9207 13.6782C39.2509 13.1629 39.6635 12.5833 39.6727 11.8518C39.6775 11.4858 39.5394 11.0915 39.2735 10.7619C39.008 10.4323 38.6284 10.1585 38.1069 9.90225L38.1073 9.9026C38.0267 9.86045 37.937 9.83955 37.8462 9.84127C37.8256 9.8399 37.8054 9.8399 37.7849 9.84127L37.7849 9.84127ZM40.7013 10.7622C40.5005 10.7889 40.3316 10.9257 40.2637 11.1165C40.1956 11.3073 40.2401 11.5201 40.3789 11.6678C40.7194 12.0508 40.7359 12.2358 40.7013 12.4507C40.667 12.6655 40.5091 12.9495 40.3021 13.2949C40.0952 13.6402 39.831 14.0671 39.8108 14.615C39.7906 15.1628 40.052 15.745 40.6242 16.3034H40.6245C40.7218 16.4216 40.865 16.4929 41.0182 16.4997C41.1713 16.5062 41.32 16.4473 41.4276 16.338C41.5348 16.2284 41.5904 16.0787 41.5808 15.9255C41.5712 15.7727 41.4968 15.6308 41.3766 15.5359C40.9397 15.1097 40.8931 14.8555 40.9007 14.6459C40.9085 14.4362 41.0264 14.1909 41.2231 13.863C41.4194 13.5354 41.677 13.1517 41.7603 12.635C41.8435 12.1184 41.6811 11.4966 41.1922 10.9466L41.1926 10.9463C41.0812 10.8185 40.9164 10.7503 40.7472 10.7623C40.7318 10.7616 40.7163 10.7616 40.7009 10.7623L40.7013 10.7622ZM33.9476 18.0223C33.6999 18.074 33.521 18.2909 33.5179 18.5441C33.5179 18.5441 33.5042 19.4952 33.5793 20.6621C33.6546 21.8291 33.8006 23.1981 34.2391 24.2079C34.7541 25.3937 35.7946 26.4777 36.5874 27.2623L36.5878 27.2626C36.6902 27.3627 36.8283 27.4178 36.9715 27.4161H41.8987H41.8983C42.0416 27.4178 42.1796 27.3627 42.2821 27.2626C43.004 26.5489 43.928 25.5909 44.4769 24.5306C44.5248 24.5258 44.7437 24.5056 45.06 24.4539C45.4091 24.397 45.8072 24.325 46.1499 24.1777C46.9232 23.8447 47.6758 23.3318 48.1298 22.7195C48.4012 22.354 48.6852 21.8979 48.7897 21.3535C48.8946 20.8091 48.7726 20.1561 48.2984 19.6343C48.0068 19.3136 47.6334 19.2118 47.2548 19.1279C46.8759 19.0436 46.4651 19.0056 46.0882 18.9898C45.8011 18.9778 45.5719 18.9853 45.3516 18.9898V18.5447L45.3519 18.5441C45.342 18.2542 45.1049 18.024 44.8147 18.0222H34.0544C34.0188 18.0188 33.9828 18.0188 33.9472 18.0222L33.9476 18.0223ZM45.3367 20.0635C45.5485 20.0591 45.7736 20.0522 46.0429 20.0635C46.3824 20.0779 46.748 20.1094 47.0251 20.1711C47.3027 20.2328 47.4866 20.3551 47.501 20.3705C47.7662 20.6621 47.7861 20.8677 47.7313 21.1534C47.6765 21.4391 47.4918 21.7766 47.2708 22.0744C47.0142 22.4201 46.3389 22.9131 45.7204 23.1797C45.5885 23.2366 45.2199 23.3274 44.9071 23.3791C45.1383 22.5167 45.25 21.5327 45.3062 20.6621C45.3199 20.4476 45.3292 20.2588 45.3367 20.0635H45.3367Z" fill="#F9C06A"/>
<path d="M19.1019 52.3704L17.933 52.8625C17.8418 52.5663 17.7188 52.2952 17.5638 52.0491C17.4134 51.803 17.2311 51.5933 17.0169 51.4202C16.8073 51.2424 16.568 51.1057 16.2992 51.01C16.0303 50.9097 15.7363 50.8596 15.4173 50.8596C15.0755 50.8596 14.7611 50.9166 14.474 51.0305C14.1914 51.1399 13.9362 51.2926 13.7083 51.4885C13.485 51.6845 13.2891 51.9124 13.1205 52.1721C12.9518 52.4319 12.8106 52.7099 12.6966 53.0061C12.5827 53.2978 12.4984 53.6008 12.4437 53.9153C12.389 54.2297 12.3617 54.5374 12.3617 54.8381C12.3617 55.3167 12.4164 55.7929 12.5257 56.2668C12.6397 56.7408 12.8174 57.1669 13.0589 57.5452C13.305 57.9234 13.6218 58.231 14.0091 58.468C14.3965 58.7004 14.8659 58.8167 15.4173 58.8167C15.709 58.8167 15.9847 58.7688 16.2445 58.6731C16.5042 58.5728 16.7389 58.4384 16.9486 58.2698C17.1628 58.0966 17.3496 57.8938 17.5091 57.6614C17.6686 57.429 17.7962 57.1783 17.8919 56.9094L19.0746 57.3811C18.9014 57.814 18.6644 58.1946 18.3636 58.5227C18.0628 58.8463 17.7188 59.1152 17.3314 59.3293C16.9486 59.5435 16.5361 59.703 16.0941 59.8079C15.6566 59.9172 15.2145 59.9719 14.7679 59.9719C14.2848 59.9719 13.82 59.9127 13.3734 59.7942C12.9313 59.6757 12.5189 59.5071 12.1361 59.2883C11.7533 59.0696 11.4046 58.8053 11.0902 58.4954C10.7803 58.1855 10.5137 57.8414 10.2904 57.4631C10.0716 57.0849 9.90073 56.6747 9.77768 56.2327C9.65919 55.7861 9.59995 55.3212 9.59995 54.8381C9.59995 54.3551 9.65919 53.8925 9.77768 53.4504C9.90073 53.0038 10.0716 52.5914 10.2904 52.2131C10.5137 51.8303 10.7803 51.484 11.0902 51.1741C11.4046 50.8642 11.7533 50.5999 12.1361 50.3811C12.5189 50.1624 12.9313 49.9937 13.3734 49.8752C13.82 49.7568 14.2848 49.6975 14.7679 49.6975C15.2328 49.6975 15.6862 49.7522 16.1283 49.8616C16.5749 49.9709 16.9896 50.1373 17.3724 50.3606C17.7552 50.5793 18.0947 50.8573 18.391 51.1946C18.6917 51.5273 18.9287 51.9192 19.1019 52.3704ZM30.6199 55.0637V55.1936C30.6108 55.5764 30.5698 55.9729 30.4969 56.3831C30.4285 56.7932 30.3305 57.2034 30.2029 57.6135C30.0753 58.0237 29.9226 58.4293 29.7449 58.8303C29.5672 59.2314 29.3667 59.6142 29.1433 59.9788C28.9246 60.3479 28.6876 60.692 28.4324 61.011C28.1772 61.3346 27.9083 61.6194 27.6258 61.8655L26.6072 61.2776C26.7667 61.0087 26.9103 60.7148 27.0379 60.3958C27.17 60.0813 27.2885 59.7509 27.3933 59.4045C27.4982 59.0582 27.587 58.7027 27.6599 58.3381C27.7374 57.9736 27.8012 57.6112 27.8514 57.2512C27.9015 56.8912 27.9379 56.538 27.9607 56.1917C27.9881 55.8407 28.0017 55.5081 28.0017 55.1936C28.0017 54.9475 27.9995 54.6695 27.9949 54.3596C27.9949 54.0452 27.9767 53.7262 27.9402 53.4026C27.9083 53.079 27.8536 52.7646 27.7762 52.4592C27.6987 52.1493 27.5825 51.8736 27.4275 51.6321C27.2771 51.3905 27.0812 51.1969 26.8396 51.051C26.6027 50.9052 26.3064 50.8323 25.951 50.8323C25.6365 50.8323 25.3654 50.887 25.1375 50.9963C24.9142 51.1012 24.7228 51.2447 24.5633 51.427C24.4083 51.6047 24.283 51.8121 24.1873 52.0491C24.0961 52.2861 24.0232 52.5367 23.9685 52.801C23.9184 53.0608 23.8842 53.3251 23.866 53.594C23.8523 53.8583 23.8455 54.109 23.8455 54.3459V56.2532H26.7918V57.3811H23.8455V59.7737H21.1316V54.7698C21.1316 54.0543 21.2456 53.3889 21.4734 52.7737C21.7013 52.1584 22.0226 51.6252 22.4373 51.1741C22.8566 50.7183 23.3579 50.3629 23.9412 50.1077C24.5291 49.8479 25.1831 49.718 25.9031 49.718C26.3907 49.718 26.8465 49.7887 27.2703 49.9299C27.6987 50.0667 28.0883 50.2581 28.4392 50.5042C28.7902 50.7457 29.1023 51.0351 29.3758 51.3723C29.6538 51.705 29.8839 52.0696 30.0662 52.4661C30.253 52.8625 30.3943 53.2818 30.49 53.7239C30.5857 54.1659 30.629 54.6125 30.6199 55.0637ZM35.6643 59.7737H32.9504V49.9299H40.0188V51.1877H35.6643V54.2297H39.0276V55.4807H35.6643V59.7737ZM49.069 59.7737H42.0006V49.9299H49.069V51.1877H44.7145V54.2297H48.0778V55.4807H44.7145V58.5159H49.069V59.7737ZM52.5685 59.7737H51.3106V49.9299H53.0743L59.0558 56.6907V49.9299H60.3067V59.7737H58.5431L52.5685 53.0198V59.7737ZM72.4673 55.0637V55.1936C72.4582 55.5764 72.4172 55.9729 72.3443 56.3831C72.2759 56.7932 72.1779 57.2034 72.0503 57.6135C71.9227 58.0237 71.7701 58.4293 71.5923 58.8303C71.4146 59.2314 71.2141 59.6142 70.9908 59.9788C70.772 60.3479 70.535 60.692 70.2798 61.011C70.0246 61.3346 69.7557 61.6194 69.4732 61.8655L68.4546 61.2776C68.6141 61.0087 68.7577 60.7148 68.8853 60.3958C69.0175 60.0813 69.1359 59.7509 69.2408 59.4045C69.3456 59.0582 69.4344 58.7027 69.5074 58.3381C69.5848 57.9736 69.6486 57.6112 69.6988 57.2512C69.7489 56.8912 69.7854 56.538 69.8081 56.1917C69.8355 55.8407 69.8492 55.5081 69.8492 55.1936C69.8492 54.9475 69.8469 54.6695 69.8423 54.3596C69.8423 54.0452 69.8241 53.7262 69.7876 53.4026C69.7557 53.079 69.7011 52.7646 69.6236 52.4592C69.5461 52.1493 69.4299 51.8736 69.2749 51.6321C69.1246 51.3905 68.9286 51.1969 68.6871 51.051C68.4501 50.9052 68.1539 50.8323 67.7984 50.8323C67.4839 50.8323 67.2128 50.887 66.9849 50.9963C66.7616 51.1012 66.5702 51.2447 66.4107 51.427C66.2557 51.6047 66.1304 51.8121 66.0347 52.0491C65.9436 52.2861 65.8706 52.5367 65.816 52.801C65.7658 53.0608 65.7317 53.3251 65.7134 53.594C65.6997 53.8583 65.6929 54.109 65.6929 54.3459V56.2532H68.6392V57.3811H65.6929V59.7737H62.979V54.7698C62.979 54.0543 63.093 53.3889 63.3208 52.7737C63.5487 52.1584 63.87 51.6252 64.2847 51.1741C64.704 50.7183 65.2053 50.3629 65.7886 50.1077C66.3765 49.8479 67.0305 49.718 67.7505 49.718C68.2382 49.718 68.6939 49.7887 69.1177 49.9299C69.5461 50.0667 69.9358 50.2581 70.2867 50.5042C70.6376 50.7457 70.9497 51.0351 71.2232 51.3723C71.5012 51.705 71.7313 52.0696 71.9136 52.4661C72.1005 52.8625 72.2417 53.2818 72.3374 53.7239C72.4331 54.1659 72.4764 54.6125 72.4673 55.0637Z" fill="#DABB9E"/>
</g>
<defs>
<filter id="filter0_d_1_584" x="4.59998" y="0" width="72.881" height="70.8655" filterUnits="userSpaceOnUse" color-interpolation-filters="sRGB">
<feFlood flood-opacity="0" result="BackgroundImageFix"/>
<feColorMatrix in="SourceAlpha" type="matrix" values="0 0 0 0 0 0 0 0 0 0 0 0 0 0 0 0 0 0 127 0" result="hardAlpha"/>
<feOffset dy="4"/>
<feGaussianBlur stdDeviation="2.5"/>
<feComposite in2="hardAlpha" operator="out"/>
<feColorMatrix type="matrix" values="0 0 0 0 0.0916667 0 0 0 0 0.0916667 0 0 0 0 0.0916667 0 0 0 0.25 0"/>
<feBlend mode="normal" in2="BackgroundImageFix" result="effect1_dropShadow_1_584"/>
<feBlend mode="normal" in="SourceGraphic" in2="effect1_dropShadow_1_584" result="shape"/>
</filter>
</defs>
</svg>
