<svg width="107" height="18" viewBox="0 0 107 18" fill="none" xmlns="http://www.w3.org/2000/svg">
<path d="M17.8333 6.82586H11.0269L8.91667 0L6.80639 6.82586H0L5.49861 11.0382L3.41806 17.8333L8.91667 13.621L14.4153 17.8333L12.305 11.0075L17.8333 6.82586Z" fill="#FFCC32"/>
<path d="M40.125 6.82586H33.3186L31.2083 0L29.098 6.82586H22.2917L27.7903 11.0382L25.7097 17.8333L31.2083 13.621L36.7069 17.8333L34.5967 11.0075L40.125 6.82586Z" fill="#FFCC32"/>
<path d="M62.4167 6.82586H55.6103L53.5 0L51.3897 6.82586H44.5833L50.082 11.0382L48.0014 17.8333L53.5 13.621L58.9986 17.8333L56.8883 11.0075L62.4167 6.82586Z" fill="#FFCC32"/>
<path d="M84.7083 6.82586H77.9019L75.7917 0L73.6814 6.82586H66.875L72.3736 11.0382L70.2931 17.8333L75.7917 13.621L81.2903 17.8333L79.18 11.0075L84.7083 6.82586Z" fill="#FFCC32"/>
<path d="M107 6.82586H100.194L98.0834 0L95.9731 6.82586H89.1667L94.6653 11.0382L92.5847 17.8333L98.0834 13.621L103.582 17.8333L101.472 11.0075L107 6.82586Z" fill="#FFCC32"/>
</svg>
